<svg xmlns="http://www.w3.org/2000/svg" width="1200" height="800" viewBox="0 0 1200 800">
  <defs>
    <linearGradient id="g" x1="0" y1="0" x2="1" y2="1">
      <stop offset="0%" stop-color="#b8e6ea"/>
      <stop offset="100%" stop-color="#2f7f8a"/>
    </linearGradient>
    <linearGradient id="glass" x1="0" y1="0" x2="1" y2="1">
      <stop offset="0%" stop-color="rgba(255,255,255,0.88)"/>
      <stop offset="100%" stop-color="rgba(255,255,255,0.56)"/>
    </linearGradient>
  </defs>
  <rect width="1200" height="800" fill="#edf7f7"/>
  <circle cx="1050" cy="120" r="180" fill="url(#g)" opacity="0.20"/>
  <circle cx="170" cy="690" r="240" fill="url(#g)" opacity="0.16"/>
  <rect x="70" y="80" width="1060" height="640" rx="36" fill="white" stroke="#b8e6ea" stroke-width="2"/>
  <rect x="110" y="120" width="420" height="560" rx="30" fill="url(#g)"/>
  <circle cx="450" cy="185" r="14" fill="white" opacity="0.85"/>
  <circle cx="410" cy="185" r="14" fill="white" opacity="0.65"/>
  <circle cx="370" cy="185" r="14" fill="white" opacity="0.45"/>
  <rect x="160" y="250" width="320" height="22" rx="11" fill="white" opacity="0.94"/>
  <rect x="160" y="292" width="270" height="18" rx="9" fill="white" opacity="0.8"/>
  <rect x="160" y="324" width="292" height="18" rx="9" fill="white" opacity="0.8"/>
  <rect x="160" y="430" width="170" height="52" rx="26" fill="white" opacity="0.95"/>
  <rect x="570" y="140" width="470" height="40" rx="20" fill="#b8e6ea" opacity="0.34"/>
  <rect x="570" y="212" width="500" height="28" rx="14" fill="#2f7f8a" opacity="0.84"/>
  <rect x="570" y="256" width="410" height="18" rx="9" fill="#b8e6ea" opacity="0.46"/>
  <rect x="570" y="288" width="430" height="18" rx="9" fill="#b8e6ea" opacity="0.46"/>
  <rect x="570" y="320" width="370" height="18" rx="9" fill="#b8e6ea" opacity="0.46"/>
  <rect x="570" y="390" width="150" height="150" rx="24" fill="#edf7f7" stroke="#b8e6ea"/>
  <rect x="745" y="390" width="150" height="150" rx="24" fill="#edf7f7" stroke="#b8e6ea"/>
  <rect x="920" y="390" width="150" height="150" rx="24" fill="#edf7f7" stroke="#b8e6ea"/>
  <path d="M645 500 C675 455 715 455 745 500" fill="none" stroke="#2f7f8a" stroke-width="12" stroke-linecap="round"/>
  <path d="M820 500 C850 455 890 455 920 500" fill="none" stroke="#2f7f8a" stroke-width="12" stroke-linecap="round"/>
  <path d="M995 500 C1025 455 1065 455 1095 500" fill="none" stroke="#2f7f8a" stroke-width="12" stroke-linecap="round"/>
  <text x="160" y="392" font-size="52" font-weight="800" fill="white" font-family="Arial, Helvetica, sans-serif">Cliffside Retreat</text>
  <text x="160" y="545" font-size="24" font-weight="700" fill="white" font-family="Arial, Helvetica, sans-serif">Holiday let</text>
  <text x="570" y="170" font-size="18" letter-spacing="3" fill="#1f5860" font-family="Arial, Helvetica, sans-serif">FEATURE SECTION</text>
  <text x="570" y="235" font-size="36" font-weight="800" fill="#1f5860" font-family="Arial, Helvetica, sans-serif">An image-led website demo for stays, escapes and guest</text>
  <text x="570" y="610" font-size="22" fill="#1f5860" font-family="Arial, Helvetica, sans-serif">Use for trust areas</text>
  <text x="570" y="640" font-size="22" fill="#1f5860" font-family="Arial, Helvetica, sans-serif">and supporting visuals</text>
</svg>